<svg xmlns="http://www.w3.org/2000/svg" width="2067.507" height="11.232" viewBox="0 0 2067.507 11.232">
  <g id="Group_273" data-name="Group 273" transform="translate(2067.507 11.232) rotate(180)">
    <path id="Path_5668" data-name="Path 5668" d="M23.983,0V7.474H3.761V3.758H19.68V0H0V11.232H27.741V3.758H47.965V7.474H32.047v3.758H51.723V0Z" transform="translate(2015.784 0)" fill="#fff"/>
    <path id="Path_5669" data-name="Path 5669" d="M23.983,0V7.474H3.758V3.758H19.672V0H0V11.232H27.741V3.758H47.965V7.474H32.047v3.758H51.723V0Z" transform="translate(1964.099 0)" fill="#fff"/>
    <path id="Path_5670" data-name="Path 5670" d="M23.983,0V7.474H3.758V3.758H19.676V0H0V11.232H27.741V3.758H47.965V7.474H32.051v3.758H51.723V0Z" transform="translate(1912.411 0)" fill="#fff"/>
    <path id="Path_5671" data-name="Path 5671" d="M23.983,0V7.474H3.758V3.758H19.672V0H0V11.232H27.74V3.758H47.965V7.474H32.047v3.758H51.723V0Z" transform="translate(1860.726 0)" fill="#fff"/>
    <path id="Path_5672" data-name="Path 5672" d="M23.983,0V7.474H3.758V3.758H19.676V0H0V11.232H27.741V3.758H47.969V7.474H32.051v3.758H51.727V0Z" transform="translate(1809.037 0)" fill="#fff"/>
    <path id="Path_5673" data-name="Path 5673" d="M23.983,0V7.474H3.758V3.758H19.676V0H0V11.232H27.741V3.758H47.965V7.474H32.047v3.758H51.723V0Z" transform="translate(1757.352 0)" fill="#fff"/>
    <path id="Path_5674" data-name="Path 5674" d="M23.979,0V7.474H3.758V3.758H19.672V0H0V11.232H27.74V3.758H47.962V7.474H32.043v3.758h19.68V0Z" transform="translate(1705.668 0)" fill="#fff"/>
    <path id="Path_5675" data-name="Path 5675" d="M23.983,0V7.474H3.758V3.758H19.676V0H0V11.232H27.741V3.758H47.965V7.474H32.047v3.758H51.723V0Z" transform="translate(1653.976 0)" fill="#fff"/>
    <path id="Path_5676" data-name="Path 5676" d="M23.983,0V7.474H3.758V3.758H19.673V0H0V11.232H27.741V3.758H47.966V7.474H32.047v3.758H51.723V0Z" transform="translate(1602.291 0)" fill="#fff"/>
    <path id="Path_5677" data-name="Path 5677" d="M23.987,0V7.474H3.758V3.758H19.676V0H0V11.232H27.744V3.758H47.969V7.474H32.051v3.758H51.727V0Z" transform="translate(1550.602 0)" fill="#fff"/>
    <path id="Path_5678" data-name="Path 5678" d="M23.983,0V7.474H3.758V3.758H19.676V0H0V11.232H27.741V3.758H47.965V7.474H32.047v3.758H51.723V0Z" transform="translate(1498.918 0)" fill="#fff"/>
    <path id="Path_5679" data-name="Path 5679" d="M23.983,0V7.474H3.758V3.758H19.673V0H0V11.232H27.741V3.758H47.965V7.474H32.047v3.758H51.723V0Z" transform="translate(1447.233 0)" fill="#fff"/>
    <path id="Path_5680" data-name="Path 5680" d="M23.979,0V7.474H3.758V3.758H19.676V0H0V11.232H27.741V3.758H47.962V7.474H32.043v3.758h19.68V0Z" transform="translate(1395.545 0)" fill="#fff"/>
    <path id="Path_5681" data-name="Path 5681" d="M23.983,0V7.474H3.762V3.758H19.676V0H0V11.232H27.741V3.758H47.966V7.474H32.047v3.758H51.723V0Z" transform="translate(1343.856 0)" fill="#fff"/>
    <path id="Path_5682" data-name="Path 5682" d="M23.986,0V7.474H3.758V3.758H19.676V0H0V11.232H27.744V3.758H47.969V7.474H32.051v3.758H51.727V0Z" transform="translate(1292.167 0)" fill="#fff"/>
    <path id="Path_5683" data-name="Path 5683" d="M23.983,0V7.474H3.758V3.758H19.676V0H0V11.232H27.741V3.758H47.965V7.474H32.047v3.758H51.723V0Z" transform="translate(1240.483 0)" fill="#fff"/>
    <path id="Path_5684" data-name="Path 5684" d="M23.983,0V7.474H3.758V3.758H19.672V0H0V11.232H27.741V3.758H47.965V7.474H32.047v3.758H51.723V0Z" transform="translate(1188.798 0)" fill="#fff"/>
    <path id="Path_5685" data-name="Path 5685" d="M23.983,0V7.474H3.758V3.758H19.676V0H0V11.232H27.741V3.758H47.966V7.474H32.051v3.758H51.723V0Z" transform="translate(1137.109 0)" fill="#fff"/>
    <path id="Path_5686" data-name="Path 5686" d="M23.983,0V7.474H3.758V3.758H19.673V0H0V11.232H27.741V3.758H47.965V7.474H32.047v3.758H51.723V0Z" transform="translate(1085.424 0)" fill="#fff"/>
    <path id="Path_5687" data-name="Path 5687" d="M23.99,0V7.474H3.762V3.758H19.68V0H0V11.232H27.748V3.758H47.969V7.474H32.051v3.758h19.68V0Z" transform="translate(1033.732 0)" fill="#fff"/>
    <path id="Path_5688" data-name="Path 5688" d="M23.983,0V7.474H3.758V3.758H19.68V0H0V11.232H27.741V3.758H47.966V7.474H32.047v3.758H51.723V0Z" transform="translate(982.048 0)" fill="#fff"/>
    <path id="Path_5689" data-name="Path 5689" d="M23.983,0V7.474H3.758V3.758H19.672V0H0V11.232H27.741V3.758H47.965V7.474H32.047v3.758H51.723V0Z" transform="translate(930.363 0)" fill="#fff"/>
    <path id="Path_5690" data-name="Path 5690" d="M23.983,0V7.474H3.758V3.758H19.676V0H0V11.232H27.741V3.758H47.965V7.474H32.047v3.758H51.723V0Z" transform="translate(878.675 0)" fill="#fff"/>
    <path id="Path_5691" data-name="Path 5691" d="M23.983,0V7.474H3.758V3.758H19.672V0H0V11.232H27.741V3.758H47.965V7.474H32.047v3.758H51.723V0Z" transform="translate(826.99 0)" fill="#fff"/>
    <path id="Path_5692" data-name="Path 5692" d="M23.983,0V7.474H3.758V3.758H19.676V0H0V11.232H27.741V3.758H47.969V7.474H32.047v3.758h19.68V0Z" transform="translate(775.301 0)" fill="#fff"/>
    <path id="Path_5693" data-name="Path 5693" d="M23.983,0V7.474H3.758V3.758H19.672V0H0V11.232H27.741V3.758H47.965V7.474H32.047v3.758H51.723V0Z" transform="translate(723.616 0)" fill="#fff"/>
    <path id="Path_5694" data-name="Path 5694" d="M23.983,0V7.474H3.758V3.758H19.676V0H0V11.232H27.744V3.758H47.965V7.474H32.047v3.758H51.723V0Z" transform="translate(671.928 0)" fill="#fff"/>
    <path id="Path_5695" data-name="Path 5695" d="M23.987,0V7.474H3.758V3.758H19.676V0H0V11.232H27.744V3.758H47.969V7.474H32.051v3.758H51.727V0Z" transform="translate(620.239 0)" fill="#fff"/>
    <path id="Path_5696" data-name="Path 5696" d="M23.983,0V7.474H3.758V3.758H19.676V0H0V11.232H27.741V3.758H47.965V7.474H32.047v3.758H51.723V0Z" transform="translate(568.555 0)" fill="#fff"/>
    <path id="Path_5697" data-name="Path 5697" d="M23.979,0V7.474H3.758V3.758H19.672V0H0V11.232H27.741V3.758H47.962V7.474H32.043v3.758H51.72V0Z" transform="translate(516.87 0)" fill="#fff"/>
    <path id="Path_5698" data-name="Path 5698" d="M23.983,0V7.474H3.758V3.758H19.672V0H0V11.232H27.741V3.758H47.965V7.474H32.047v3.758H51.723V0Z" transform="translate(465.181 0)" fill="#fff"/>
    <path id="Path_5699" data-name="Path 5699" d="M23.986,0V7.474H3.758V3.758H19.676V0H0V11.232H27.744V3.758H47.969V7.474H32.051v3.758H51.727V0Z" transform="translate(413.493 0)" fill="#fff"/>
    <path id="Path_5700" data-name="Path 5700" d="M23.983,0V7.474H3.758V3.758H19.676V0H0V11.232H27.741V3.758H47.965V7.474H32.047v3.758H51.723V0Z" transform="translate(361.808 0)" fill="#fff"/>
    <path id="Path_5701" data-name="Path 5701" d="M23.983,0V7.474H3.762V3.758H19.676V0H0V11.232H27.741V3.758H47.965V7.474H32.047v3.758H51.723V0Z" transform="translate(310.12 0)" fill="#fff"/>
    <path id="Path_5702" data-name="Path 5702" d="M23.983,0V7.474H3.758V3.758H19.672V0H0V11.232H27.741V3.758H47.965V7.474H32.047v3.758H51.723V0Z" transform="translate(258.435 0)" fill="#fff"/>
    <path id="Path_5703" data-name="Path 5703" d="M23.983,0V7.474H3.758V3.758H19.676V0H0V11.232H27.741V3.758H47.965V7.474H32.047v3.758h19.68V0Z" transform="translate(206.747 0)" fill="#fff"/>
    <path id="Path_5704" data-name="Path 5704" d="M23.986,0V7.474H3.762V3.758H19.676V0H0V11.232H27.744V3.758H47.969V7.474H32.051v3.758H51.727V0Z" transform="translate(155.058 0)" fill="#fff"/>
    <path id="Path_5705" data-name="Path 5705" d="M23.983,0V7.474H3.758V3.758H19.676V0H0V11.232H27.741V3.758H47.965V7.474H32.047v3.758H51.723V0Z" transform="translate(103.373 0)" fill="#fff"/>
    <path id="Path_5706" data-name="Path 5706" d="M23.983,0V7.474H3.758V3.758H19.672V0H0V11.232H27.741V3.758H47.965V7.474H32.047v3.758H51.723V0Z" transform="translate(51.688 0)" fill="#fff"/>
    <path id="Path_5707" data-name="Path 5707" d="M23.983,0V7.474H3.758V3.758H19.676V0H0V11.232H27.741V3.758H47.965V7.474H32.047v3.758h19.68V0Z" transform="translate(0 0)" fill="#fff"/>
  </g>
</svg>
