<svg id="Group_287" data-name="Group 287" xmlns="http://www.w3.org/2000/svg" xmlns:xlink="http://www.w3.org/1999/xlink" width="103.794" height="27.63" viewBox="0 0 103.794 27.63">
  <defs>
    <clipPath id="clip-path">
      <rect id="Rectangle_84" data-name="Rectangle 84" width="103.794" height="27.63" fill="#fff"/>
    </clipPath>
  </defs>
  <rect id="Rectangle_79" data-name="Rectangle 79" width="103.794" height="1.83" transform="translate(0 12.9)" fill="#fff"/>
  <g id="Group_285" data-name="Group 285" transform="translate(0 0)">
    <g id="Group_284" data-name="Group 284" clip-path="url(#clip-path)">
      <path id="Path_5741" data-name="Path 5741" d="M7.88.061a8.451,8.451,0,0,0-7.861,9l.062.913.913-.062a8.461,8.461,0,0,0,7.861-9L8.794,0ZM2.061,6.751A6.654,6.654,0,0,1,5.864,2.4l1.328-.562-.38,1.391a6.683,6.683,0,0,1-3.8,4.354l-1.327.565Z" transform="translate(2.539 17.655)" fill="#fff"/>
      <path id="Path_5742" data-name="Path 5742" d="M.02.913A8.4,8.4,0,0,0,2.086,7.042,8.4,8.4,0,0,0,7.881,9.914l.913.062.062-.913a8.46,8.46,0,0,0-7.861-9L.082,0ZM5.864,7.581a6.559,6.559,0,0,1-2.4-1.743,6.561,6.561,0,0,1-1.4-2.613L1.682,1.833,3.01,2.4a6.683,6.683,0,0,1,3.8,4.354l.38,1.391Z" transform="translate(2.539 0)" fill="#fff"/>
      <rect id="Rectangle_80" data-name="Rectangle 80" width="1.83" height="9.945" transform="translate(17.634 8.842)" fill="#fff"/>
      <path id="Path_5743" data-name="Path 5743" d="M7.88.062a8.46,8.46,0,0,0-7.861,9l.061.913.913-.062A8.394,8.394,0,0,0,6.786,7.039,8.4,8.4,0,0,0,8.855.913L8.793,0ZM2.064,6.749A6.683,6.683,0,0,1,5.861,2.4l1.331-.567-.382,1.4a6.683,6.683,0,0,1-3.8,4.35l-1.331.566Z" transform="translate(24.43 17.654)" fill="#fff"/>
      <path id="Path_5744" data-name="Path 5744" d="M.02.913A8.394,8.394,0,0,0,2.089,7.039,8.394,8.394,0,0,0,7.88,9.914l.913.062.062-.913A8.4,8.4,0,0,0,6.786,2.937,8.394,8.394,0,0,0,.994.062L.081,0ZM5.861,7.577a6.683,6.683,0,0,1-3.8-4.349l-.382-1.4L3.013,2.4a6.683,6.683,0,0,1,3.8,4.349l.382,1.4Z" transform="translate(24.43 0)" fill="#fff"/>
      <rect id="Rectangle_81" data-name="Rectangle 81" width="1.83" height="9.945" transform="translate(39.524 8.842)" fill="#fff"/>
      <path id="Path_5745" data-name="Path 5745" d="M7.88.062a8.46,8.46,0,0,0-7.861,9l.061.913.913-.062A8.394,8.394,0,0,0,6.786,7.039,8.4,8.4,0,0,0,8.855.913L8.793,0ZM2.064,6.749A6.681,6.681,0,0,1,5.861,2.4l1.331-.567-.382,1.4a6.685,6.685,0,0,1-3.8,4.35l-1.331.566Z" transform="translate(46.319 17.654)" fill="#fff"/>
      <path id="Path_5746" data-name="Path 5746" d="M.02.913A8.394,8.394,0,0,0,2.089,7.039,8.394,8.394,0,0,0,7.88,9.914l.913.062.062-.913A8.4,8.4,0,0,0,6.786,2.937,8.394,8.394,0,0,0,.994.062L.081,0ZM5.861,7.577a6.683,6.683,0,0,1-3.8-4.349l-.382-1.4L3.013,2.4a6.683,6.683,0,0,1,3.8,4.349l.382,1.4Z" transform="translate(46.32 0)" fill="#fff"/>
      <rect id="Rectangle_82" data-name="Rectangle 82" width="1.83" height="9.945" transform="translate(61.414 8.842)" fill="#fff"/>
      <path id="Path_5747" data-name="Path 5747" d="M7.88.062a8.46,8.46,0,0,0-7.861,9l.061.913.913-.062A8.394,8.394,0,0,0,6.786,7.039,8.4,8.4,0,0,0,8.855.913L8.793,0ZM2.064,6.749A6.683,6.683,0,0,1,5.861,2.4l1.331-.567-.382,1.4a6.683,6.683,0,0,1-3.8,4.35l-1.331.566Z" transform="translate(68.209 17.654)" fill="#fff"/>
      <path id="Path_5748" data-name="Path 5748" d="M.02.913A8.394,8.394,0,0,0,2.089,7.039,8.394,8.394,0,0,0,7.88,9.914l.913.062.062-.913A8.4,8.4,0,0,0,6.786,2.937,8.393,8.393,0,0,0,.994.062L.081,0ZM5.862,7.577a6.683,6.683,0,0,1-3.8-4.349l-.382-1.4L3.013,2.4a6.683,6.683,0,0,1,3.8,4.349l.382,1.4Z" transform="translate(68.209 0)" fill="#fff"/>
      <rect id="Rectangle_83" data-name="Rectangle 83" width="1.83" height="9.945" transform="translate(83.304 8.842)" fill="#fff"/>
      <path id="Path_5749" data-name="Path 5749" d="M7.88.061a8.46,8.46,0,0,0-7.861,9l.061.913.913-.062A8.391,8.391,0,0,0,6.785,7.039,8.4,8.4,0,0,0,8.855.913L8.793,0ZM2.06,6.751A6.654,6.654,0,0,1,5.864,2.4l1.328-.562-.38,1.391a6.683,6.683,0,0,1-3.8,4.354l-1.327.564Z" transform="translate(90.099 17.655)" fill="#fff"/>
      <path id="Path_5750" data-name="Path 5750" d="M.02.913A8.4,8.4,0,0,0,2.085,7.041,8.394,8.394,0,0,0,7.88,9.914l.913.062.062-.913a8.46,8.46,0,0,0-7.861-9L.081,0ZM5.862,7.577a6.685,6.685,0,0,1-3.8-4.349l-.382-1.4L3.013,2.4a6.68,6.68,0,0,1,3.8,4.349l.382,1.4Z" transform="translate(90.099 0)" fill="#fff"/>
    </g>
  </g>
</svg>
