<svg xmlns="http://www.w3.org/2000/svg" xmlns:xlink="http://www.w3.org/1999/xlink" width="103.794" height="27.63" viewBox="0 0 103.794 27.63">
  <defs>
    <clipPath id="clip-path">
      <rect id="Rectangle_84" data-name="Rectangle 84" width="103.794" height="27.63" fill="#dca74a"/>
    </clipPath>
  </defs>
  <g id="Group_286" data-name="Group 286" transform="translate(103.794 27.63) rotate(180)">
    <rect id="Rectangle_79" data-name="Rectangle 79" width="103.794" height="1.83" transform="translate(0 12.9)" fill="#dca74a"/>
    <g id="Group_285" data-name="Group 285" transform="translate(0 0)">
      <g id="Group_284" data-name="Group 284" transform="translate(0 0)" clip-path="url(#clip-path)">
        <path id="Path_5741" data-name="Path 5741" d="M7.88,9.914A8.394,8.394,0,0,1,2.086,7.041,8.393,8.393,0,0,1,.02.913L.082,0,.994.062a8.46,8.46,0,0,1,7.861,9l-.062.913ZM2.061,3.225a6.556,6.556,0,0,0,1.4,2.612,6.561,6.561,0,0,0,2.4,1.743l1.328.562-.38-1.391A6.683,6.683,0,0,0,3.01,2.4L1.682,1.833Z" transform="translate(2.539 0)" fill="#dca74a"/>
        <path id="Path_5742" data-name="Path 5742" d="M.02,9.063a8.45,8.45,0,0,1,7.861-9L8.794,0l.062.913a8.46,8.46,0,0,1-7.861,9l-.913.062ZM5.864,2.4a6.65,6.65,0,0,0-3.8,4.356L1.682,8.143,3.01,7.579a6.683,6.683,0,0,0,3.8-4.354l.38-1.391Z" transform="translate(2.539 17.654)" fill="#dca74a"/>
        <rect id="Rectangle_80" data-name="Rectangle 80" width="1.83" height="9.945" transform="translate(17.634 8.843)" fill="#dca74a"/>
        <path id="Path_5743" data-name="Path 5743" d="M7.88,9.914A8.394,8.394,0,0,1,2.089,7.039,8.394,8.394,0,0,1,.02.913L.081,0,.994.062A8.394,8.394,0,0,1,6.786,2.937,8.4,8.4,0,0,1,8.855,9.063l-.062.913ZM2.064,3.228a6.683,6.683,0,0,0,3.8,4.349l1.331.567-.382-1.4a6.683,6.683,0,0,0-3.8-4.35L1.682,1.833Z" transform="translate(24.43 0)" fill="#dca74a"/>
        <path id="Path_5744" data-name="Path 5744" d="M.02,9.063a8.46,8.46,0,0,1,7.86-9L8.793,0l.062.913A8.394,8.394,0,0,1,6.786,7.039,8.394,8.394,0,0,1,.994,9.914l-.913.062ZM5.861,2.4a6.683,6.683,0,0,0-3.8,4.349l-.382,1.4,1.331-.566a6.683,6.683,0,0,0,3.8-4.349l.382-1.4Z" transform="translate(24.43 17.654)" fill="#dca74a"/>
        <rect id="Rectangle_81" data-name="Rectangle 81" width="1.83" height="9.945" transform="translate(39.524 8.843)" fill="#dca74a"/>
        <path id="Path_5745" data-name="Path 5745" d="M7.88,9.914A8.394,8.394,0,0,1,2.089,7.039,8.394,8.394,0,0,1,.02.913L.081,0,.994.062A8.394,8.394,0,0,1,6.786,2.937,8.4,8.4,0,0,1,8.855,9.063l-.062.913ZM2.064,3.228a6.681,6.681,0,0,0,3.8,4.349l1.331.567-.382-1.4a6.685,6.685,0,0,0-3.8-4.35L1.682,1.833Z" transform="translate(46.319 0)" fill="#dca74a"/>
        <path id="Path_5746" data-name="Path 5746" d="M.02,9.063a8.46,8.46,0,0,1,7.86-9L8.793,0l.062.913A8.4,8.4,0,0,1,6.786,7.039,8.394,8.394,0,0,1,.994,9.914l-.913.062ZM5.861,2.4a6.683,6.683,0,0,0-3.8,4.349l-.382,1.4,1.331-.566a6.683,6.683,0,0,0,3.8-4.349l.382-1.4Z" transform="translate(46.32 17.654)" fill="#dca74a"/>
        <rect id="Rectangle_82" data-name="Rectangle 82" width="1.83" height="9.945" transform="translate(61.414 8.843)" fill="#dca74a"/>
        <path id="Path_5747" data-name="Path 5747" d="M7.88,9.914A8.394,8.394,0,0,1,2.089,7.039,8.394,8.394,0,0,1,.02.913L.081,0,.994.062A8.394,8.394,0,0,1,6.786,2.937,8.4,8.4,0,0,1,8.855,9.063l-.062.913ZM2.064,3.228a6.683,6.683,0,0,0,3.8,4.349l1.331.567-.382-1.4a6.683,6.683,0,0,0-3.8-4.35L1.682,1.833Z" transform="translate(68.209 0)" fill="#dca74a"/>
        <path id="Path_5748" data-name="Path 5748" d="M.02,9.063a8.46,8.46,0,0,1,7.86-9L8.793,0l.062.913A8.394,8.394,0,0,1,6.786,7.039,8.393,8.393,0,0,1,.994,9.914l-.913.062ZM5.862,2.4a6.683,6.683,0,0,0-3.8,4.349l-.382,1.4,1.331-.566a6.683,6.683,0,0,0,3.8-4.349l.382-1.4Z" transform="translate(68.209 17.654)" fill="#dca74a"/>
        <rect id="Rectangle_83" data-name="Rectangle 83" width="1.83" height="9.945" transform="translate(83.304 8.843)" fill="#dca74a"/>
        <path id="Path_5749" data-name="Path 5749" d="M7.88,9.914a8.46,8.46,0,0,1-7.861-9L.081,0,.994.062A8.391,8.391,0,0,1,6.785,2.937,8.4,8.4,0,0,1,8.855,9.063l-.062.913ZM2.06,3.225a6.55,6.55,0,0,0,1.4,2.612,6.556,6.556,0,0,0,2.4,1.743l1.328.562-.38-1.391A6.683,6.683,0,0,0,3.009,2.4L1.683,1.834Z" transform="translate(90.099 0)" fill="#dca74a"/>
        <path id="Path_5750" data-name="Path 5750" d="M.02,9.063a8.45,8.45,0,0,1,7.861-9L8.793,0l.062.913a8.46,8.46,0,0,1-7.861,9l-.913.062ZM5.862,2.4a6.685,6.685,0,0,0-3.8,4.349l-.382,1.4,1.332-.566a6.68,6.68,0,0,0,3.8-4.349l.382-1.4Z" transform="translate(90.099 17.654)" fill="#dca74a"/>
      </g>
    </g>
  </g>
</svg>
